<?xml version="1.0" encoding="UTF-8"?>
<svg xmlns="http://www.w3.org/2000/svg" xmlns:xlink="http://www.w3.org/1999/xlink" viewBox="0 0 100 100" width="100px" height="100px">
<g id="surface173307761">
<path style=" stroke:none;fill-rule:nonzero;fill:rgb(100%,100%,100%);fill-opacity:1;" d="M 0 50 C 0 22.386719 22.386719 0 50 0 C 77.613281 0 100 22.386719 100 50 C 100 77.613281 77.613281 100 50 100 C 22.386719 100 0 77.613281 0 50 Z M 50 96 C 75.40625 96 96 75.40625 96 50 C 96 24.59375 75.40625 4 50 4 C 24.59375 4 4 24.59375 4 50 C 4 75.40625 24.59375 96 50 96 Z M 50 96 "/>
<path style=" stroke:none;fill-rule:nonzero;fill:rgb(100%,100%,100%);fill-opacity:1;" d="M 64.855469 40 L 56.847656 40 L 56.847656 33.332031 C 56.847656 29.894531 57.125 27.726562 62.054688 27.726562 L 64.949219 27.726562 C 66.789062 27.726562 68.28125 26.234375 68.28125 24.394531 L 68.28125 20.214844 C 68.28125 18.46875 66.945312 16.980469 65.207031 16.863281 C 63.191406 16.726562 61.175781 16.664062 59.15625 16.667969 C 50.113281 16.667969 43.511719 22.191406 43.511719 32.328125 L 43.511719 40 L 36.847656 40 C 35.007812 40 33.511719 41.492188 33.511719 43.332031 L 33.511719 50 C 33.511719 51.839844 35.007812 53.332031 36.847656 53.332031 L 43.511719 53.328125 L 43.511719 80 C 43.511719 81.839844 45.007812 83.332031 46.847656 83.332031 L 53.511719 83.332031 C 55.351562 83.332031 56.847656 81.839844 56.847656 80 L 56.847656 53.324219 L 64.09375 53.320312 C 65.785156 53.320312 67.210938 52.050781 67.402344 50.367188 L 68.167969 43.714844 C 68.394531 41.738281 66.847656 40 64.855469 40 Z M 64.855469 40 "/>
</g>
</svg>
