<?xml version="1.0" encoding="UTF-8"?>
<svg xmlns="http://www.w3.org/2000/svg" xmlns:xlink="http://www.w3.org/1999/xlink" viewBox="0 0 100 100" width="100px" height="100px">
<g id="surface173110055">
<path style=" stroke:none;fill-rule:nonzero;fill:rgb(100%,100%,100%);fill-opacity:1;" d="M 0 50 C 0 22.386719 22.386719 0 50 0 C 77.613281 0 100 22.386719 100 50 C 100 77.613281 77.613281 100 50 100 C 22.386719 100 0 77.613281 0 50 Z M 50 96 C 75.40625 96 96 75.40625 96 50 C 96 24.59375 75.40625 4 50 4 C 24.59375 4 4 24.59375 4 50 C 4 75.40625 24.59375 96 50 96 Z M 50 96 "/>
<path style=" stroke:none;fill-rule:nonzero;fill:rgb(100%,100%,100%);fill-opacity:1;" d="M 36.667969 20 C 27.476562 20 20 27.476562 20 36.667969 L 20 63.332031 C 20 72.523438 27.476562 80 36.667969 80 L 63.332031 80 C 72.523438 80 80 72.523438 80 63.332031 L 80 36.667969 C 80 27.476562 72.523438 20 63.332031 20 Z M 36.667969 26.667969 L 63.332031 26.667969 C 68.847656 26.667969 73.332031 31.152344 73.332031 36.667969 L 73.332031 63.332031 C 73.332031 68.847656 68.847656 73.332031 63.332031 73.332031 L 36.667969 73.332031 C 31.152344 73.332031 26.667969 68.847656 26.667969 63.332031 L 26.667969 36.667969 C 26.667969 31.152344 31.152344 26.667969 36.667969 26.667969 Z M 66.667969 30 C 64.824219 30 63.332031 31.492188 63.332031 33.332031 C 63.332031 35.175781 64.824219 36.667969 66.667969 36.667969 C 68.507812 36.667969 70 35.175781 70 33.332031 C 70 31.492188 68.507812 30 66.667969 30 Z M 50 33.332031 C 40.808594 33.332031 33.332031 40.808594 33.332031 50 C 33.332031 59.191406 40.808594 66.667969 50 66.667969 C 59.191406 66.667969 66.667969 59.191406 66.667969 50 C 66.667969 40.808594 59.191406 33.332031 50 33.332031 Z M 50 40 C 55.511719 40 60 44.488281 60 50 C 60 55.511719 55.511719 60 50 60 C 44.488281 60 40 55.511719 40 50 C 40 44.488281 44.488281 40 50 40 Z M 50 40 "/>
</g>
</svg>
