<?xml version="1.0" encoding="UTF-8"?>
<svg xmlns="http://www.w3.org/2000/svg" xmlns:xlink="http://www.w3.org/1999/xlink" viewBox="0 0 100 100" width="100px" height="100px">
<g id="surface173584581">
<path style=" stroke:none;fill-rule:nonzero;fill:rgb(100%,100%,100%);fill-opacity:1;" d="M 0 50 C 0 22.386719 22.386719 0 50 0 C 77.613281 0 100 22.386719 100 50 C 100 77.613281 77.613281 100 50 100 C 22.386719 100 0 77.613281 0 50 Z M 50 96 C 75.40625 96 96 75.40625 96 50 C 96 24.59375 75.40625 4 50 4 C 24.59375 4 4 24.59375 4 50 C 4 75.40625 24.59375 96 50 96 Z M 50 96 "/>
<path style=" stroke:none;fill-rule:nonzero;fill:rgb(100%,100%,100%);fill-opacity:1;" d="M 82.667969 29.738281 C 80.261719 30.804688 77.679688 31.523438 74.96875 31.847656 C 77.738281 30.191406 79.859375 27.566406 80.859375 24.433594 C 78.273438 25.96875 75.402344 27.085938 72.347656 27.6875 C 69.902344 25.082031 66.417969 23.453125 62.5625 23.453125 C 55.160156 23.453125 49.160156 29.457031 49.160156 36.859375 C 49.160156 37.90625 49.28125 38.933594 49.507812 39.910156 C 38.367188 39.351562 28.492188 34.015625 21.878906 25.902344 C 20.726562 27.882812 20.066406 30.1875 20.066406 32.644531 C 20.066406 37.296875 22.429688 41.398438 26.027344 43.800781 C 23.828125 43.730469 21.761719 43.128906 19.953125 42.125 C 19.953125 42.183594 19.953125 42.234375 19.953125 42.292969 C 19.953125 48.789062 24.574219 54.207031 30.707031 55.4375 C 29.585938 55.742188 28.398438 55.90625 27.175781 55.90625 C 26.3125 55.90625 25.472656 55.820312 24.652344 55.667969 C 26.359375 60.992188 31.3125 64.871094 37.175781 64.976562 C 32.589844 68.574219 26.808594 70.71875 20.527344 70.71875 C 19.445312 70.71875 18.378906 70.652344 17.328125 70.527344 C 23.261719 74.332031 30.304688 76.550781 37.878906 76.550781 C 62.535156 76.550781 76.011719 56.125 76.011719 38.410156 C 76.011719 37.832031 76 37.253906 75.976562 36.675781 C 78.597656 34.785156 80.871094 32.425781 82.667969 29.738281 Z M 82.667969 29.738281 "/>
</g>
</svg>
